<svg width="246" height="233" viewBox="0 0 246 233" fill="none" xmlns="http://www.w3.org/2000/svg">
<g clip-path="url(#clip0_1_386)">
<path fill-rule="evenodd" clip-rule="evenodd" d="M80.8679 197.092V149.662H89.5494V197.092H80.8679ZM149.954 197.092V149.662H158.635V197.092H149.954ZM208.051 158.113H193.228V197.092H184.546V158.113H170.68L165.76 149.662H213.311L224.765 170.922L236.219 149.662H246L229.138 180.727L229.07 197.092H220.391V180.857L208.05 158.114L208.051 158.113ZM26.7176 158.113V197.092H18.0361V158.113H4.39354L-0.317017 149.662H56.2089C60.5671 149.662 64.8418 150.706 68.0602 153.832C71.1356 156.819 72.365 160.686 72.365 164.949C72.365 168.496 71.5082 171.884 69.2147 174.632C67.1658 177.088 64.4375 178.523 61.4179 179.27L75.2112 197.092H64.4751L51.455 179.907H45.4136V197.092H36.7318V171.889C42.9642 171.889 49.1954 171.983 55.4274 171.983C57.5691 171.983 59.9488 171.598 61.5879 170.084C63.0464 168.737 63.6183 166.99 63.6183 165.015C63.6183 163.059 63.0569 161.315 61.592 159.983C59.9481 158.489 57.56 158.114 55.4274 158.114C45.8575 158.114 36.2879 158.114 26.718 158.114L26.7176 158.113ZM111.477 164.355L111.371 197.091H102.689V158.113V158.013L97.8251 149.661H112.371L133.409 182.491L133.481 149.661H142.163V197.091H132.417L111.477 164.355L111.477 164.355Z" fill="#FEFEFE"/>
</g>
<path fill-rule="evenodd" clip-rule="evenodd" d="M165.25 0H100.304L88.9996 20.0728H111.424L98.7625 42.0584L121.224 42.0426L133.876 20.0728H153.704L165.25 0Z" fill="#00A3A9"/>
<path fill-rule="evenodd" clip-rule="evenodd" d="M108.652 13.1162H64.1622L60.2449 20.073H104.651L108.652 13.1162Z" fill="#00A3A9"/>
<path fill-rule="evenodd" clip-rule="evenodd" d="M60.4001 30.4863L92.8734 87.1497L115.781 86.9756L104.568 67.4118L129.799 67.4654L118.555 47.8765L93.3423 47.8229L83.4286 30.5233L60.4001 30.4863Z" fill="#049393"/>
<path fill-rule="evenodd" clip-rule="evenodd" d="M99.9734 73.3086L122.219 112.124L130.158 112.064L107.955 73.3214L99.9734 73.3086Z" fill="#049393"/>
<path fill-rule="evenodd" clip-rule="evenodd" d="M139.792 106.824L172.265 50.1612L160.662 30.2621L149.45 49.8263L136.881 27.7871L125.664 47.3914L138.224 69.4152L128.31 86.7143L139.792 106.824Z" fill="#33B7BC"/>
<path fill-rule="evenodd" clip-rule="evenodd" d="M156.816 50.8859L179.061 12.0706L175.04 5.17383L152.837 43.9164L156.816 50.8859Z" fill="#33B7BC"/>
<defs>
<clipPath id="clip0_1_386">
<rect width="246" height="100.408" fill="white" transform="translate(0 132.205)"/>
</clipPath>
</defs>
</svg>
